# xmcd
#
# Track frame offsets: 
#        150
#        13222
#        24720
#        38710
#        50327
#        63160
#        75145
#        85870
#        98837
#        111800
#        123862
#        135342
#        146915
#        159035
#        172952
#        184887
#        198367
#        212312
#        226572
#        239892
#        251632
#        262357
#        274745
#        286775
#        299450
#        315125
#
# Disc length: 4389 seconds
#
# Revision: 1
# Processed by: cddbd v1.5.2PL0 Copyright (c) Steve Scherf et al.
# Submitted via: ExactAudioCopyFreeDBPlugin 1.0
#
DISCID=5e11231a
DTITLE=Various Artist - Texas Piano, Vol. 1 (1923-1935)
DYEAR=1994
DGENRE=Blues
TTITLE0=George W. Thomas - The Rocks
TTITLE1=George W. Thomas - Fast Stuff Blues
TTITLE2=George W. Thomas - Don't Kill Him in Here
TTITLE3=Hersal Thomas - Suitcase Blues
TTITLE4=Hersal Thomas - I Can't Feel Frisky Without My Liquor
TTITLE5=Hersal Thomas - Worried Down with the Blues
TTITLE6=Hersal Thomas - I Must Have It
TTITLE7=Hersal Thomas - Hersal Blues
TTITLE8=Hersal Thomas - Worried Down with the Blues
TTITLE9=Hersal Thomas - Fish Tail Dance
TTITLE10=Moanin' Bernice Edwards - Sunshine Blues
TTITLE11=Moanin' Bernice Edwards - Lonesome Longing Blues
TTITLE12=Moanin' Bernice Edwards - Mean Man Blues
TTITLE13=Moanin' Bernice Edwards - Long Tall Mama
TTITLE14=Moanin' Bernice Edwards - Moaning Blues
TTITLE15=Moanin' Bernice Edwards - Southbound Blues
TTITLE16=Moanin' Bernice Edwards - Hard Hustling Blues
TTITLE17=Moanin' Bernice Edwards - High Powered Mama Blues
TTITLE18=Moanin' Bernice Edwards - Low Down Dirty Shame Blues
TTITLE19=Moanin' Bernice Edwards - Born to Die Blues
TTITLE20=Moanin' Bernice Edwards - Two-Way Mind Blues
TTITLE21=Moanin' Bernice Edwards - Jack of All Trades
TTITLE22=Moanin' Bernice Edwards - Bantam Rooster Blues
TTITLE23=Moanin' Bernice Edwards - Hot Mattress Stomp
TTITLE24=Moanin' Bernice Edwards - Ninth Street Stomp
TTITLE25=Moanin' Bernice Edwards - Butcher Shop Blues
EXTD=YEAR: 1994
EXTT0=
EXTT1=
EXTT2=
EXTT3=
EXTT4=
EXTT5=
EXTT6=
EXTT7=
EXTT8=
EXTT9=
EXTT10=
EXTT11=
EXTT12=
EXTT13=
EXTT14=
EXTT15=
EXTT16=
EXTT17=
EXTT18=
EXTT19=
EXTT20=
EXTT21=
EXTT22=
EXTT23=
EXTT24=
EXTT25=
PLAYORDER=
